<mxfile host="app.diagrams.net" modified="2021-11-03T03:04:39.531Z" agent="5.0 (Windows NT 10.0; Win64; x64) AppleWebKit/537.36 (KHTML, like Gecko) Chrome/95.0.4638.69 Safari/537.36" etag="HQTSPwAuP_jAkdfl8BNt" version="15.6.6" type="github">
  <diagram name="Page-1" id="2cc2dc42-3aac-f2a9-1cec-7a8b7cbee084">
    <mxGraphModel dx="2522" dy="1612" grid="1" gridSize="10" guides="1" tooltips="1" connect="1" arrows="1" fold="1" page="1" pageScale="1" pageWidth="1100" pageHeight="850" background="none" math="0" shadow="0">
      <root>
        <mxCell id="0" />
        <mxCell id="1" parent="0" />
        <mxCell id="7026571954dc6520-1" value="" style="strokeWidth=1;shadow=0;dashed=0;align=center;html=1;shape=mxgraph.mockup.containers.browserWindow;rSize=0;strokeColor=#666666;mainText=,;recursiveResize=0;rounded=0;labelBackgroundColor=none;fontFamily=Verdana;fontSize=12;fillColor=default;fontColor=default;" parent="1" vertex="1">
          <mxGeometry x="10" y="-20" width="1050" height="820" as="geometry" />
        </mxCell>
        <mxCell id="7026571954dc6520-2" value="Page 1" style="strokeWidth=1;shadow=0;dashed=0;align=center;html=1;shape=mxgraph.mockup.containers.anchor;fontSize=17;fontColor=#666666;align=left;" parent="7026571954dc6520-1" vertex="1">
          <mxGeometry x="60" y="12" width="110" height="26" as="geometry" />
        </mxCell>
        <mxCell id="7026571954dc6520-3" value="https://www.default.com" style="strokeWidth=1;shadow=0;dashed=0;align=center;html=1;shape=mxgraph.mockup.containers.anchor;rSize=0;fontSize=17;fontColor=#666666;align=left;" parent="7026571954dc6520-1" vertex="1">
          <mxGeometry x="130" y="60" width="250" height="26" as="geometry" />
        </mxCell>
        <mxCell id="7026571954dc6520-4" value="Recipe Name" style="text;html=1;points=[];align=left;verticalAlign=top;spacingTop=-4;fontSize=30;fontFamily=Verdana;fontColor=default;" parent="7026571954dc6520-1" vertex="1">
          <mxGeometry x="405.63" y="145" width="205" height="50" as="geometry" />
        </mxCell>
        <mxCell id="7026571954dc6520-15" value="" style="verticalLabelPosition=bottom;shadow=0;dashed=0;align=center;html=1;verticalAlign=top;strokeWidth=1;shape=mxgraph.mockup.markup.line;strokeColor=#999999;rounded=0;labelBackgroundColor=none;fillColor=#ffffff;fontFamily=Verdana;fontSize=12;fontColor=#000000;" parent="7026571954dc6520-1" vertex="1">
          <mxGeometry y="135" width="1050" height="20" as="geometry" />
        </mxCell>
        <mxCell id="7026571954dc6520-16" value="&lt;h2 style=&quot;margin: 0px 0px 20px ; padding: 0px ; border: 0px ; font-weight: inherit ; font-stretch: inherit ; font-size: 1.375rem ; line-height: 1.625rem ; vertical-align: baseline&quot;&gt;Ingredients&lt;/h2&gt;" style="text;html=1;points=[];align=left;verticalAlign=top;spacingTop=-4;fontSize=15;fontFamily=Verdana;fontColor=default;" parent="7026571954dc6520-1" vertex="1">
          <mxGeometry x="405.63" y="440" width="170" height="30" as="geometry" />
        </mxCell>
        <mxCell id="7026571954dc6520-17" value="1 Lorem ipsum dolor sit amet, &lt;br&gt;2 consectetur adipisicing elit,&lt;br&gt;3 sed do eiusmod tempor &lt;br&gt;4 incididunt ut labore et dolore&lt;br&gt;5 magna aliqua.&lt;br&gt;6 rum." style="text;spacingTop=-5;whiteSpace=wrap;html=1;align=left;fontSize=12;fontFamily=Helvetica;fillColor=none;strokeColor=none;rounded=0;shadow=1;labelBackgroundColor=none;fontColor=default;" parent="7026571954dc6520-1" vertex="1">
          <mxGeometry x="405.63" y="480" width="250" height="90" as="geometry" />
        </mxCell>
        <mxCell id="7026571954dc6520-21" value="" style="verticalLabelPosition=bottom;shadow=0;dashed=0;align=center;html=1;verticalAlign=top;strokeWidth=1;shape=mxgraph.mockup.markup.line;strokeColor=#999999;rounded=0;labelBackgroundColor=none;fillColor=#ffffff;fontFamily=Verdana;fontSize=12;fontColor=#000000;" parent="7026571954dc6520-1" vertex="1">
          <mxGeometry x="-16.87" y="570" width="1050" height="20" as="geometry" />
        </mxCell>
        <mxCell id="7026571954dc6520-22" value="" style="verticalLabelPosition=bottom;shadow=0;dashed=0;align=center;html=1;verticalAlign=top;strokeWidth=1;shape=mxgraph.mockup.graphics.simpleIcon;strokeColor=#999999;fillColor=#ffffff;rounded=0;labelBackgroundColor=none;fontFamily=Verdana;fontSize=12;fontColor=#000000;" parent="7026571954dc6520-1" vertex="1">
          <mxGeometry x="405.63" y="217.5" width="234.37" height="182.5" as="geometry" />
        </mxCell>
        <mxCell id="7026571954dc6520-31" value="&lt;b&gt;Steps&lt;/b&gt;" style="text;html=1;points=[];align=left;verticalAlign=top;spacingTop=-4;fontSize=15;fontFamily=Verdana;fontColor=default;" parent="7026571954dc6520-1" vertex="1">
          <mxGeometry x="405.63" y="590" width="170" height="30" as="geometry" />
        </mxCell>
        <mxCell id="7026571954dc6520-32" value="&lt;font style=&quot;font-size: 12px&quot;&gt;&lt;b&gt;Serving | Time&amp;nbsp;&lt;/b&gt;&lt;/font&gt;" style="text;html=1;points=[];align=left;verticalAlign=top;spacingTop=-4;fontSize=15;fontFamily=Verdana;fontColor=default;" parent="7026571954dc6520-1" vertex="1">
          <mxGeometry x="405.63" y="400" width="184.37" height="30" as="geometry" />
        </mxCell>
        <mxCell id="7026571954dc6520-34" value="Rating&amp;nbsp;" style="text;html=1;points=[];align=left;verticalAlign=top;spacingTop=-4;fontSize=12;fontFamily=Verdana;whiteSpace=wrap;fontColor=default;" parent="7026571954dc6520-1" vertex="1">
          <mxGeometry x="405.63" y="190" width="50" height="20" as="geometry" />
        </mxCell>
        <mxCell id="20li1gJcgyPNurnMa_fN-1" value="" style="verticalLabelPosition=bottom;verticalAlign=top;html=1;shape=mxgraph.basic.star;fontColor=default;fillColor=default;strokeColor=default;" vertex="1" parent="7026571954dc6520-1">
          <mxGeometry x="465.63" y="195" width="10" height="10" as="geometry" />
        </mxCell>
        <mxCell id="20li1gJcgyPNurnMa_fN-3" value="" style="verticalLabelPosition=bottom;verticalAlign=top;html=1;shape=mxgraph.basic.star;fontColor=default;fillColor=default;strokeColor=default;" vertex="1" parent="7026571954dc6520-1">
          <mxGeometry x="455.63" y="195" width="10" height="10" as="geometry" />
        </mxCell>
        <mxCell id="20li1gJcgyPNurnMa_fN-4" value="" style="verticalLabelPosition=bottom;verticalAlign=top;html=1;shape=mxgraph.basic.star;fontColor=default;fillColor=default;strokeColor=default;" vertex="1" parent="7026571954dc6520-1">
          <mxGeometry x="475.63" y="195" width="10" height="10" as="geometry" />
        </mxCell>
        <mxCell id="20li1gJcgyPNurnMa_fN-5" value="" style="verticalLabelPosition=bottom;verticalAlign=top;html=1;shape=mxgraph.basic.star;fontColor=default;fillColor=default;strokeColor=default;" vertex="1" parent="7026571954dc6520-1">
          <mxGeometry x="485.63" y="195" width="10" height="10" as="geometry" />
        </mxCell>
        <mxCell id="20li1gJcgyPNurnMa_fN-2" value="" style="verticalLabelPosition=bottom;verticalAlign=top;html=1;shape=mxgraph.basic.star;fontColor=default;fillColor=default;strokeColor=default;" vertex="1" parent="7026571954dc6520-1">
          <mxGeometry x="495.63" y="195" width="10" height="10" as="geometry" />
        </mxCell>
        <mxCell id="7026571954dc6520-36" value="1 Lorem ipsum dolor sit amet, consectetur adipisicing elit, sed do eiusmod tempor incididunt ut labore et dolore magna aliqua. Ut enim ad minim veniam, quis nostrud&lt;br&gt;&lt;br&gt;2&amp;nbsp; exercitation ullamco laboris nisi ut aliquip ex ea commodo consequat. Duis aute irure dolor in reprehenderit in voluptate velit esse cillum dolore eu fugiat nulla pariatur.&lt;br&gt;&lt;br&gt;3 Excepteur sint occaecat cupidatat non proident, sunt in culpa qui officia deserunt mollit anim id est laborum.&amp;nbsp;" style="text;spacingTop=-5;whiteSpace=wrap;html=1;align=left;fontSize=12;fontFamily=Helvetica;fillColor=none;strokeColor=none;rounded=0;shadow=1;labelBackgroundColor=none;fontColor=default;" parent="7026571954dc6520-1" vertex="1">
          <mxGeometry x="405.63" y="620" width="244.37" height="200" as="geometry" />
        </mxCell>
        <mxCell id="20li1gJcgyPNurnMa_fN-16" value="Search..." style="text;html=1;points=[];align=left;verticalAlign=top;spacingTop=-4;fontSize=15;fontFamily=Verdana;fontColor=default;" vertex="1" parent="7026571954dc6520-1">
          <mxGeometry x="722" y="115" width="120" height="30" as="geometry" />
        </mxCell>
        <mxCell id="20li1gJcgyPNurnMa_fN-14" value="Exolore Recipes" style="text;html=1;points=[];align=left;verticalAlign=top;spacingTop=-4;fontSize=15;fontFamily=Verdana;fontColor=default;" vertex="1" parent="7026571954dc6520-1">
          <mxGeometry x="20" y="115" width="120" height="30" as="geometry" />
        </mxCell>
        <mxCell id="20li1gJcgyPNurnMa_fN-15" value="Build Recipe" style="text;html=1;points=[];align=left;verticalAlign=top;spacingTop=-4;fontSize=15;fontFamily=Verdana;fontColor=default;" vertex="1" parent="7026571954dc6520-1">
          <mxGeometry x="150" y="115" width="120" height="30" as="geometry" />
        </mxCell>
        <mxCell id="20li1gJcgyPNurnMa_fN-19" value="My CookBook" style="text;html=1;points=[];align=left;verticalAlign=top;spacingTop=-4;fontSize=15;fontFamily=Verdana;fontColor=default;" vertex="1" parent="7026571954dc6520-1">
          <mxGeometry x="250" y="115" width="120" height="30" as="geometry" />
        </mxCell>
        <mxCell id="20li1gJcgyPNurnMa_fN-18" value="Account" style="text;html=1;points=[];align=left;verticalAlign=top;spacingTop=-4;fontSize=15;fontFamily=Verdana;fontColor=default;" vertex="1" parent="7026571954dc6520-1">
          <mxGeometry x="953.13" y="115" width="80" height="30" as="geometry" />
        </mxCell>
        <mxCell id="20li1gJcgyPNurnMa_fN-17" value="" style="rounded=1;whiteSpace=wrap;html=1;fillColor=#dae8fc;strokeColor=#6c8ebf;fontColor=default;" vertex="1" parent="7026571954dc6520-1">
          <mxGeometry x="840" y="115" width="36" height="20" as="geometry" />
        </mxCell>
        <mxCell id="20li1gJcgyPNurnMa_fN-20" value="" style="rounded=1;whiteSpace=wrap;html=1;fillColor=none;strokeColor=#C7C7C7;fontColor=default;" vertex="1" parent="7026571954dc6520-1">
          <mxGeometry x="722" y="115" width="154" height="20" as="geometry" />
        </mxCell>
      </root>
    </mxGraphModel>
  </diagram>
</mxfile>
